<svg width="48" height="41" viewBox="0 0 48 41" fill="none" xmlns="http://www.w3.org/2000/svg">
<g clip-path="url(#clip0_954_8947)">
<path fill-rule="evenodd" clip-rule="evenodd" d="M4.49719 40.1934V23.0072C3.58312 23.3587 2.72719 23.3662 2.01656 23.1244C1.46156 22.9369 0.993749 22.6003 0.649687 22.1672C0.305624 21.7341 0.0871868 21.2062 0.0206243 20.6241C-0.0806257 19.7222 0.188437 18.7022 0.958124 17.745C0.997499 17.6991 1.04062 17.6522 1.09125 17.6128L23.3784 0.215622C23.6672 -0.0496906 24.1125 -0.0768781 24.4331 0.172497L46.7709 17.5387C46.8066 17.5659 46.8375 17.5931 46.8684 17.6287C47.9034 18.7416 48.1613 19.9762 47.9119 21.0187C47.7899 21.5234 47.5455 21.9903 47.2003 22.3781C46.8572 22.7652 46.4218 23.0592 45.9347 23.2331C45.1538 23.5144 44.2247 23.5069 43.2825 23.0616V40.1456H41.0953V22.1006C41.0953 21.7059 25.7728 9.59437 24.0806 8.27718C22.2881 9.64125 6.68437 21.6553 6.68437 22.1634V40.2009L4.49719 40.1934ZM18.1884 33.3516C20.0822 35.0766 21.9872 36.0366 23.9044 36.0938C25.875 36.1537 27.8859 35.2584 29.9437 33.2616C27.7978 33.2353 25.7916 32.4403 26.4938 30.4828L26.49 30.4725C24.8784 31.9387 23.2022 31.9997 21.3956 30.5869C21.3516 30.8906 21.2522 31.3088 21.1106 31.6331C20.6794 32.7262 19.4887 33.2409 18.1884 33.3516ZM23.0944 23.8837C23.4497 24.0169 23.5247 24.3131 23.325 24.4247C23.0916 24.5559 22.7981 24.3609 22.5703 24.2878C21.9769 24.0984 21.2691 24.0769 20.7572 24.3975C20.6203 24.4828 20.4816 24.5944 20.34 24.7275C20.3925 24.54 20.4741 24.3684 20.5922 24.2175C21.1087 23.5678 22.4053 23.5294 23.0944 23.8837ZM24.9066 23.8837C24.5513 24.0169 24.4763 24.3131 24.675 24.4247C24.9084 24.5559 25.2019 24.3609 25.4297 24.2878C26.0241 24.0984 26.73 24.0769 27.2438 24.3975C27.3806 24.4828 27.5184 24.5944 27.6609 24.7275C27.6075 24.54 27.5259 24.3684 27.4078 24.2175C26.8913 23.5678 25.5956 23.5294 24.9066 23.8837ZM21.1481 25.1578C21.1069 25.1419 21.0722 25.1044 21.0572 25.0537C21.0319 24.9666 21.0722 24.8719 21.1491 24.8419C21.7359 24.6131 22.3331 24.6291 22.9209 24.8419C22.9969 24.8691 23.0391 24.9628 23.0156 25.05C22.9922 25.1381 22.9097 25.185 22.8328 25.1578C22.7372 25.1236 22.6399 25.0945 22.5412 25.0706C22.5506 25.1044 22.5562 25.1428 22.5562 25.1794C22.5562 25.4053 22.3716 25.59 22.1466 25.59C22.0791 25.5899 22.0127 25.5732 21.9533 25.5414C21.8938 25.5096 21.8431 25.4636 21.8056 25.4076C21.768 25.3515 21.7449 25.2871 21.7381 25.22C21.7314 25.1529 21.7413 25.0852 21.7669 25.0228C21.6206 25.0406 21.4762 25.0744 21.3309 25.125C21.2719 25.1456 21.2119 25.1822 21.1481 25.1578ZM25.5675 25.0472C25.5534 25.0884 25.545 25.1334 25.545 25.1794C25.545 25.4053 25.7288 25.59 25.9547 25.59C26.1806 25.59 26.3653 25.4053 26.3653 25.1794C26.3653 25.1137 26.3503 25.0537 26.3231 24.9984C26.5012 25.0191 26.6822 25.0575 26.8641 25.1175C26.9428 25.1428 27.0225 25.0922 27.045 25.0022C27.0666 24.9159 27.0206 24.8222 26.9447 24.7969C26.659 24.7017 26.3599 24.653 26.0588 24.6525C25.7653 24.6525 25.4719 24.7022 25.1841 24.7987C25.1072 24.8241 25.0612 24.9159 25.0828 25.005C25.1053 25.0922 25.1869 25.1428 25.2638 25.1175C25.3613 25.0847 25.4578 25.0584 25.5534 25.0378C25.5778 25.0322 25.5731 25.0284 25.5675 25.0472ZM23.3494 27.2006C23.3559 27.1687 23.3709 27.1387 23.3934 27.1116C23.4112 27.0903 23.433 27.0728 23.4576 27.06C23.4821 27.0472 23.509 27.0393 23.5366 27.0369C23.5642 27.0344 23.592 27.0375 23.6184 27.0458C23.6449 27.0541 23.6694 27.0675 23.6906 27.0853C23.7956 27.1744 23.8969 27.2212 23.9944 27.2212C24.0919 27.2231 24.1969 27.1781 24.3122 27.0834C24.4022 27.0084 24.5353 27.0225 24.6075 27.1116C24.6834 27.2006 24.6684 27.3347 24.5794 27.4069C24.3853 27.5672 24.1884 27.6422 23.9887 27.6403C23.8181 27.6422 23.6559 27.5831 23.5003 27.4725C23.4075 27.4059 23.3184 27.3356 23.3494 27.2006ZM22.7606 28.7691C22.7541 28.7241 22.7606 28.6753 22.7831 28.6322C22.8403 28.5253 22.9753 28.4822 23.0831 28.5412C23.4253 28.7241 23.6953 28.785 24.0272 28.7869C24.3572 28.7869 24.5812 28.755 24.9131 28.5712C24.9387 28.5569 24.9668 28.5478 24.9959 28.5444C25.025 28.541 25.0545 28.5434 25.0827 28.5514C25.1109 28.5594 25.1372 28.573 25.1601 28.5912C25.1831 28.6095 25.2021 28.6321 25.2163 28.6577C25.2305 28.6834 25.2394 28.7116 25.2426 28.7407C25.2458 28.7698 25.2432 28.7993 25.235 28.8274C25.2268 28.8556 25.2131 28.8818 25.1947 28.9046C25.1763 28.9274 25.1536 28.9463 25.1278 28.9603C24.7313 29.1806 24.4359 29.2303 24.0291 29.2284C23.6756 29.2266 23.3869 29.1722 23.0344 29.01C22.9219 28.9575 22.7803 28.9097 22.7606 28.7691ZM13.8084 31.7906C16.0622 31.6078 16.89 29.2669 17.1675 26.8387C17.5912 23.1216 17.0034 18.3403 21.4762 16.5319C25.0284 15.0956 29.6222 17.0297 30.1228 22.1466C30.1022 25.6237 31.08 31.5384 34.1916 31.7906C33.9956 32.3447 33.1753 32.7759 32.1347 33.0244C35.0597 34.3838 36.7566 36.81 36.7566 39.8878C36.7566 40.0603 36.6159 40.2009 36.4434 40.2009H11.5566C11.3841 40.2009 11.2444 40.0603 11.2444 39.8878C11.2444 37.0884 12.8362 34.5019 15.6553 33.09C14.7309 32.8125 14.0062 32.3503 13.8084 31.7906ZM26.7469 29.535C27.4219 28.7897 27.9853 27.9994 28.3931 27.0703C28.6622 25.7916 28.6772 24.45 28.3922 23.0297C27.0872 22.425 26.2341 21.0956 25.7972 19.0987C25.275 22.9003 20.6062 22.7372 19.4316 23.4281C19.4316 25.1569 19.2047 26.3653 19.9659 27.9412L19.965 27.9422C20.1319 28.2862 20.3072 28.6059 20.4937 28.9022C20.6587 29.1637 20.8191 29.4169 21.0131 29.6259C21.1641 29.7881 21.3253 29.9334 21.495 30.0619C22.3931 30.6647 23.5397 30.8831 24.6562 30.7087C25.4419 30.5353 26.1816 30.1341 26.7469 29.535ZM36.6234 1.3875L43.3294 1.66125V10.7194L36.6234 6.29343V1.3875Z" fill="#D7385E"/>
</g>
<defs>
<clipPath id="clip0_954_8947">
<rect width="48" height="40.2009" fill="white"/>
</clipPath>
</defs>
</svg>
