<svg width="32" height="32" viewBox="0 0 32 32" fill="none" xmlns="http://www.w3.org/2000/svg">
<rect x="0.5" y="0.5" width="31" height="31" rx="15.5" stroke="white"/>
<path d="M21.9647 13.5366C21.958 13.0317 21.8635 12.5318 21.6854 12.0593C21.5309 11.6607 21.2951 11.2988 20.9928 10.9965C20.6906 10.6943 20.3286 10.4584 19.93 10.304C19.4636 10.1289 18.9708 10.0342 18.4727 10.024C17.8314 9.9953 17.628 9.9873 16 9.9873C14.372 9.9873 14.1634 9.9873 13.5267 10.024C13.0288 10.0343 12.5363 10.129 12.07 10.304C11.6714 10.4583 11.3094 10.6941 11.0071 10.9964C10.7049 11.2987 10.469 11.6607 10.3147 12.0593C10.1393 12.5254 10.0448 13.018 10.0354 13.516C10.0067 14.158 9.99805 14.3613 9.99805 15.9893C9.99805 17.6173 9.99805 17.8253 10.0354 18.4626C10.0454 18.9613 10.1394 19.4533 10.3147 19.9206C10.4693 20.3191 10.7053 20.681 11.0077 20.9832C11.31 21.2853 11.6721 21.521 12.0707 21.6753C12.5357 21.8574 13.0283 21.9589 13.5274 21.9753C14.1694 22.004 14.3727 22.0126 16.0007 22.0126C17.6287 22.0126 17.8374 22.0126 18.474 21.9753C18.9721 21.9655 19.465 21.871 19.9314 21.696C20.3298 21.5414 20.6917 21.3054 20.9939 21.0032C21.2962 20.701 21.5321 20.3391 21.6867 19.9406C21.862 19.474 21.956 18.982 21.966 18.4826C21.9947 17.8413 22.0034 17.638 22.0034 16.0093C22.002 14.3813 22.002 14.1746 21.9647 13.5366ZM15.996 19.068C14.2934 19.068 12.914 17.6886 12.914 15.986C12.914 14.2833 14.2934 12.904 15.996 12.904C16.8134 12.904 17.5974 13.2287 18.1753 13.8067C18.7533 14.3847 19.078 15.1686 19.078 15.986C19.078 16.8034 18.7533 17.5873 18.1753 18.1653C17.5974 18.7433 16.8134 19.068 15.996 19.068ZM19.2007 13.5086C18.8027 13.5086 18.482 13.1873 18.482 12.79C18.482 12.6956 18.5006 12.6022 18.5367 12.5151C18.5728 12.4279 18.6257 12.3487 18.6924 12.282C18.7591 12.2153 18.8383 12.1624 18.9255 12.1263C19.0126 12.0902 19.106 12.0716 19.2004 12.0716C19.2947 12.0716 19.3881 12.0902 19.4753 12.1263C19.5624 12.1624 19.6416 12.2153 19.7083 12.282C19.775 12.3487 19.8279 12.4279 19.864 12.5151C19.9001 12.6022 19.9187 12.6956 19.9187 12.79C19.9187 13.1873 19.5974 13.5086 19.2007 13.5086Z" fill="white"/>
<path d="M15.9961 17.9879C17.1018 17.9879 17.9981 17.0916 17.9981 15.9859C17.9981 14.8802 17.1018 13.9839 15.9961 13.9839C14.8905 13.9839 13.9941 14.8802 13.9941 15.9859C13.9941 17.0916 14.8905 17.9879 15.9961 17.9879Z" fill="white"/>
</svg>
