<svg width="37" height="38" viewBox="0 0 37 38" fill="none" xmlns="http://www.w3.org/2000/svg">
<path d="M25.6 2.04001C25.6 1.68657 25.8866 1.40001 26.24 1.40001C26.5934 1.40001 26.88 1.68657 26.88 2.04001C26.88 2.39345 26.5934 2.68001 26.24 2.68001C25.8866 2.68001 25.6 2.39345 25.6 2.04001ZM35.84 5.88001C35.4866 5.88001 35.2 6.16657 35.2 6.52001C35.2 6.87345 35.4866 7.16001 35.84 7.16001C36.1934 7.16001 36.48 6.87345 36.48 6.52001C36.48 6.16657 36.1934 5.88001 35.84 5.88001ZM30.08 2.68001C30.08 1.62129 30.9413 0.76001 32 0.76001C33.0587 0.76001 33.92 1.62129 33.92 2.68001C33.92 3.73873 33.0587 4.60001 32 4.60001C30.9413 4.60001 30.08 3.73873 30.08 2.68001ZM31.36 2.68001C31.36 3.03281 31.6469 3.32001 32 3.32001C32.3531 3.32001 32.64 3.03281 32.64 2.68001C32.64 2.32721 32.3531 2.04001 32 2.04001C31.6469 2.04001 31.36 2.32721 31.36 2.68001ZM34.56 9.72001V28.92C34.56 29.1698 34.415 29.3967 34.1882 29.5013L17.5482 37.1813C17.4632 37.2203 17.3712 37.24 17.28 37.24C17.1888 37.24 17.0968 37.2203 17.0118 37.1813L0.37184 29.5013C0.14496 29.3967 0 29.1698 0 28.92V9.72001C0 9.46289 0.15376 9.23057 0.39056 9.13057L17.0306 2.09057C17.1906 2.02305 17.3693 2.02305 17.5293 2.09057L34.1693 9.13057C34.4062 9.23057 34.56 9.46289 34.56 9.72001ZM2.2824 9.72001L9.31024 12.6933L17.0118 9.13873C17.1886 9.05745 17.3931 9.06065 17.5662 9.14753L24.9291 12.829L32.2776 9.72001L17.28 3.37505L2.2824 9.72001ZM23.5288 23.16L17.2688 20.0301L10.4872 23.1602L17.2688 26.2901L23.5288 23.16ZM16.64 10.7202L9.6 13.9693V22.1595L16.64 18.9102V10.7202ZM1.28 28.5106L16.64 35.5995V27.4096L8.69184 23.7413C8.46496 23.6367 8.32 23.4098 8.32 23.16V13.6642L1.28 10.6856V28.5106ZM33.28 28.5106V10.6856L25.6 13.9349V23.16C25.6 23.4026 25.4632 23.624 25.2462 23.7325L17.92 27.3957V35.5997L33.28 28.5106Z" fill="url(#paint0_linear_1556_2064)"/>
<defs>
<linearGradient id="paint0_linear_1556_2064" x1="18.24" y1="0.76001" x2="18.24" y2="37.24" gradientUnits="userSpaceOnUse">
<stop stop-color="#D7385E"/>
<stop offset="1" stop-color="#76D3D6"/>
</linearGradient>
</defs>
</svg>
