<svg width="1440" height="1020" viewBox="0 0 1440 1020" fill="none" xmlns="http://www.w3.org/2000/svg">
<g clip-path="url(#clip0_1526_41541)">
<rect width="1440" height="1019.2" fill="#FFFAF5"/>
<g opacity="0.5">
<path d="M1231.15 121.126C1231.15 143.155 1231.15 165.006 1231.15 186.974C1247.76 184.404 1262.04 177.359 1274.37 165.6C1267.19 165.6 1260.3 165.6 1253.27 165.6C1253.27 165.06 1253.27 164.675 1253.27 164.296C1253.27 157.692 1253.28 151.079 1253.24 144.474C1253.24 143.548 1253.45 143.263 1254.43 143.271C1273.97 143.301 1293.53 143.294 1313.08 143.294C1313.42 143.294 1313.78 143.294 1314.16 143.294C1304.72 172.715 1274.37 205.646 1228.98 209.597C1177.77 214.056 1138.4 180.863 1125.67 143.386C1145.93 143.386 1166.17 143.386 1186.5 143.386C1186.5 150.701 1186.5 158.039 1186.5 165.508C1179.65 165.508 1172.77 165.508 1165.9 165.508C1165.86 165.616 1165.82 165.716 1165.77 165.824C1171.62 171.495 1178.21 176.14 1185.53 179.767C1192.85 183.393 1200.55 185.747 1208.71 186.981C1208.71 165.029 1208.71 143.186 1208.71 121.141C1194.03 121.141 1179.33 121.141 1164.62 121.141C1149.94 121.141 1135.26 121.141 1120.47 121.141C1119.62 113.688 1119.63 106.334 1120.46 98.8808C1149.9 98.8808 1179.26 98.8808 1208.71 98.8808C1208.71 76.8982 1208.71 55.0313 1208.71 33.01C1192.08 35.5717 1177.81 42.6241 1165.75 54.1516C1165.77 54.2519 1165.8 54.3445 1165.83 54.4448C1172.7 54.4448 1179.57 54.4448 1186.51 54.4448C1186.51 61.883 1186.51 69.19 1186.51 76.5895C1166.24 76.5895 1146 76.5895 1125.55 76.5895C1132.18 58.2488 1143.1 43.087 1158.4 31.1273C1173.73 19.1368 1191.16 12.1539 1210.53 10.4255C1262.05 5.8191 1301.61 39.3216 1314.17 76.5973C1293.88 76.5973 1273.61 76.5973 1253.3 76.5973C1253.3 69.2285 1253.3 61.9216 1253.3 54.4911C1260.22 54.4911 1267.1 54.4911 1273.97 54.4911C1274.01 54.3908 1274.05 54.2905 1274.1 54.1902C1268.26 48.5036 1261.67 43.8586 1254.34 40.2398C1247.02 36.6211 1239.32 34.2291 1231.15 33.0332C1231.15 55.0004 1231.15 76.875 1231.15 98.8731C1245.88 98.8731 1260.56 98.8731 1275.23 98.8731C1289.92 98.8731 1304.59 98.8731 1319.4 98.8731C1319.51 100.162 1319.62 101.358 1319.72 102.554C1320.18 108.479 1320.06 114.398 1319.49 120.316C1319.41 121.172 1318.96 121.149 1318.36 121.149C1313.18 121.141 1307.99 121.149 1302.81 121.149C1279.4 121.149 1255.98 121.149 1232.58 121.149C1232.14 121.126 1231.68 121.126 1231.15 121.126Z" fill="#D7385E" fill-opacity="0.12"/>
<path d="M241.314 541.126C241.314 563.155 241.314 585.006 241.314 606.974C257.928 604.404 272.203 597.359 284.54 585.6C277.352 585.6 270.466 585.6 263.433 585.6C263.433 585.06 263.433 584.675 263.433 584.296C263.433 577.692 263.448 571.079 263.409 564.474C263.402 563.548 263.618 563.263 264.591 563.271C284.139 563.301 303.694 563.294 323.242 563.294C323.589 563.294 323.945 563.294 324.323 563.294C314.881 592.715 284.532 625.646 239.144 629.597C187.935 634.056 148.562 600.863 135.831 563.386C156.097 563.386 176.339 563.386 196.667 563.386C196.667 570.701 196.667 578.039 196.667 585.508C189.811 585.508 182.94 585.508 176.069 585.508C176.023 585.616 175.984 585.716 175.938 585.824C181.782 591.495 188.375 596.14 195.694 599.767C203.013 603.393 210.718 605.747 218.878 606.981C218.878 585.029 218.878 563.186 218.878 541.141C204.194 541.141 189.495 541.141 174.788 541.141C160.104 541.141 145.427 541.141 130.635 541.141C129.786 533.688 129.793 526.334 130.627 518.881C160.065 518.881 189.425 518.881 218.871 518.881C218.871 496.898 218.871 475.031 218.871 453.01C202.249 455.572 187.974 462.624 175.915 474.152C175.938 474.252 175.969 474.345 175.992 474.445C182.863 474.445 189.734 474.445 196.675 474.445C196.675 481.883 196.675 489.19 196.675 496.59C176.409 496.59 156.166 496.59 135.715 496.59C142.347 478.249 153.263 463.087 168.565 451.127C183.898 439.137 201.322 432.154 220.7 430.426C272.211 425.819 311.777 459.322 324.338 496.597C304.042 496.597 283.776 496.597 263.463 496.597C263.463 489.229 263.463 481.922 263.463 474.491C270.389 474.491 277.267 474.491 284.139 474.491C284.177 474.391 284.216 474.291 284.262 474.19C278.425 468.504 271.832 463.859 264.506 460.24C257.187 456.621 249.49 454.229 241.314 453.033C241.314 475 241.314 496.875 241.314 518.873C256.044 518.873 270.721 518.873 285.397 518.873C300.081 518.873 314.757 518.873 329.565 518.873C329.673 520.162 329.789 521.358 329.882 522.554C330.345 528.479 330.221 534.398 329.658 540.316C329.573 541.172 329.125 541.149 328.523 541.149C323.342 541.141 318.154 541.149 312.974 541.149C289.566 541.149 266.15 541.149 242.742 541.149C242.302 541.126 241.846 541.126 241.314 541.126Z" fill="#D7385E" fill-opacity="0.12"/>
<path d="M1231.15 961.126C1231.15 983.155 1231.15 1005.01 1231.15 1026.97C1247.76 1024.4 1262.04 1017.36 1274.37 1005.6C1267.19 1005.6 1260.3 1005.6 1253.27 1005.6C1253.27 1005.06 1253.27 1004.67 1253.27 1004.3C1253.27 997.692 1253.28 991.079 1253.24 984.474C1253.24 983.548 1253.45 983.263 1254.43 983.271C1273.97 983.301 1293.53 983.294 1313.08 983.294C1313.42 983.294 1313.78 983.294 1314.16 983.294C1304.72 1012.71 1274.37 1045.65 1228.98 1049.6C1177.77 1054.06 1138.4 1020.86 1125.67 983.386C1145.93 983.386 1166.17 983.386 1186.5 983.386C1186.5 990.701 1186.5 998.039 1186.5 1005.51C1179.65 1005.51 1172.77 1005.51 1165.9 1005.51C1165.86 1005.62 1165.82 1005.72 1165.77 1005.82C1171.62 1011.5 1178.21 1016.14 1185.53 1019.77C1192.85 1023.39 1200.55 1025.75 1208.71 1026.98C1208.71 1005.03 1208.71 983.186 1208.71 961.141C1194.03 961.141 1179.33 961.141 1164.62 961.141C1149.94 961.141 1135.26 961.141 1120.47 961.141C1119.62 953.688 1119.63 946.334 1120.46 938.881C1149.9 938.881 1179.26 938.881 1208.71 938.881C1208.71 916.898 1208.71 895.031 1208.71 873.01C1192.08 875.572 1177.81 882.624 1165.75 894.152C1165.77 894.252 1165.8 894.345 1165.83 894.445C1172.7 894.445 1179.57 894.445 1186.51 894.445C1186.51 901.883 1186.51 909.19 1186.51 916.59C1166.24 916.59 1146 916.59 1125.55 916.59C1132.18 898.249 1143.1 883.087 1158.4 871.127C1173.73 859.137 1191.16 852.154 1210.53 850.426C1262.05 845.819 1301.61 879.322 1314.17 916.597C1293.88 916.597 1273.61 916.597 1253.3 916.597C1253.3 909.229 1253.3 901.922 1253.3 894.491C1260.22 894.491 1267.1 894.491 1273.97 894.491C1274.01 894.391 1274.05 894.291 1274.1 894.19C1268.26 888.504 1261.67 883.859 1254.34 880.24C1247.02 876.621 1239.32 874.229 1231.15 873.033C1231.15 895 1231.15 916.875 1231.15 938.873C1245.88 938.873 1260.56 938.873 1275.23 938.873C1289.92 938.873 1304.59 938.873 1319.4 938.873C1319.51 940.162 1319.62 941.358 1319.72 942.554C1320.18 948.479 1320.06 954.398 1319.49 960.316C1319.41 961.172 1318.96 961.149 1318.36 961.149C1313.18 961.141 1307.99 961.149 1302.81 961.149C1279.4 961.149 1255.98 961.149 1232.58 961.149C1232.14 961.126 1231.68 961.126 1231.15 961.126Z" fill="#D7385E" fill-opacity="0.12"/>
</g>
</g>
<defs>
<clipPath id="clip0_1526_41541">
<rect width="1440" height="1019.2" fill="white"/>
</clipPath>
</defs>
</svg>
