<svg width="640" height="297" viewBox="0 0 640 297" fill="none" xmlns="http://www.w3.org/2000/svg">
<circle cx="133" cy="163.402" r="133" fill="url(#paint0_linear_950_14999)"/>
<g opacity="0.5">
<circle cx="510" cy="30.4019" r="2" fill="#76D3D6"/>
<circle cx="510" cy="46.4019" r="2" fill="#76D3D6"/>
<circle cx="510" cy="62.4019" r="2" fill="#76D3D6"/>
<circle cx="510" cy="78.4019" r="2" fill="#76D3D6"/>
<circle cx="510" cy="94.4019" r="2" fill="#76D3D6"/>
<circle cx="510" cy="110.402" r="2" fill="#76D3D6"/>
<circle cx="510" cy="126.402" r="2" fill="#76D3D6"/>
<circle cx="510" cy="142.402" r="2" fill="#76D3D6"/>
<circle cx="510" cy="158.402" r="2" fill="#76D3D6"/>
<circle cx="510" cy="174.402" r="2" fill="#76D3D6"/>
<circle cx="526" cy="30.4019" r="2" fill="#76D3D6"/>
<circle cx="526" cy="46.4019" r="2" fill="#76D3D6"/>
<circle cx="526" cy="62.4019" r="2" fill="#76D3D6"/>
<circle cx="526" cy="78.4019" r="2" fill="#76D3D6"/>
<circle cx="526" cy="94.4019" r="2" fill="#76D3D6"/>
<circle cx="526" cy="110.402" r="2" fill="#76D3D6"/>
<circle cx="526" cy="126.402" r="2" fill="#76D3D6"/>
<circle cx="526" cy="142.402" r="2" fill="#76D3D6"/>
<circle cx="526" cy="158.402" r="2" fill="#76D3D6"/>
<circle cx="526" cy="174.402" r="2" fill="#76D3D6"/>
<circle cx="542" cy="30.4019" r="2" fill="#76D3D6"/>
<circle cx="542" cy="46.4019" r="2" fill="#76D3D6"/>
<circle cx="542" cy="62.4019" r="2" fill="#76D3D6"/>
<circle cx="542" cy="78.4019" r="2" fill="#76D3D6"/>
<circle cx="542" cy="94.4019" r="2" fill="#76D3D6"/>
<circle cx="542" cy="110.402" r="2" fill="#76D3D6"/>
<circle cx="542" cy="126.402" r="2" fill="#76D3D6"/>
<circle cx="542" cy="142.402" r="2" fill="#76D3D6"/>
<circle cx="542" cy="158.402" r="2" fill="#76D3D6"/>
<circle cx="542" cy="174.402" r="2" fill="#76D3D6"/>
<circle cx="558" cy="30.4019" r="2" fill="#76D3D6"/>
<circle cx="558" cy="46.4019" r="2" fill="#76D3D6"/>
<circle cx="558" cy="62.4019" r="2" fill="#76D3D6"/>
<circle cx="558" cy="78.4019" r="2" fill="#76D3D6"/>
<circle cx="558" cy="94.4019" r="2" fill="#76D3D6"/>
<circle cx="558" cy="110.402" r="2" fill="#76D3D6"/>
<circle cx="558" cy="126.402" r="2" fill="#76D3D6"/>
<circle cx="558" cy="142.402" r="2" fill="#76D3D6"/>
<circle cx="558" cy="158.402" r="2" fill="#76D3D6"/>
<circle cx="558" cy="174.402" r="2" fill="#76D3D6"/>
<circle cx="574" cy="30.4019" r="2" fill="#76D3D6"/>
<circle cx="574" cy="46.4019" r="2" fill="#76D3D6"/>
<circle cx="574" cy="62.4019" r="2" fill="#76D3D6"/>
<circle cx="574" cy="78.4019" r="2" fill="#76D3D6"/>
<circle cx="574" cy="94.4019" r="2" fill="#76D3D6"/>
<circle cx="574" cy="110.402" r="2" fill="#76D3D6"/>
<circle cx="574" cy="126.402" r="2" fill="#76D3D6"/>
<circle cx="574" cy="142.402" r="2" fill="#76D3D6"/>
<circle cx="574" cy="158.402" r="2" fill="#76D3D6"/>
<circle cx="574" cy="174.402" r="2" fill="#76D3D6"/>
<circle cx="590" cy="30.4019" r="2" fill="#76D3D6"/>
<circle cx="590" cy="46.4019" r="2" fill="#76D3D6"/>
<circle cx="590" cy="62.4019" r="2" fill="#76D3D6"/>
<circle cx="590" cy="78.4019" r="2" fill="#76D3D6"/>
<circle cx="590" cy="94.4019" r="2" fill="#76D3D6"/>
<circle cx="590" cy="110.402" r="2" fill="#76D3D6"/>
<circle cx="590" cy="126.402" r="2" fill="#76D3D6"/>
<circle cx="590" cy="142.402" r="2" fill="#76D3D6"/>
<circle cx="590" cy="158.402" r="2" fill="#76D3D6"/>
<circle cx="590" cy="174.402" r="2" fill="#76D3D6"/>
<circle cx="606" cy="30.4019" r="2" fill="#76D3D6"/>
<circle cx="606" cy="46.4019" r="2" fill="#76D3D6"/>
<circle cx="606" cy="62.4019" r="2" fill="#76D3D6"/>
<circle cx="606" cy="78.4019" r="2" fill="#76D3D6"/>
<circle cx="606" cy="94.4019" r="2" fill="#76D3D6"/>
<circle cx="606" cy="110.402" r="2" fill="#76D3D6"/>
<circle cx="606" cy="126.402" r="2" fill="#76D3D6"/>
<circle cx="606" cy="142.402" r="2" fill="#76D3D6"/>
<circle cx="606" cy="158.402" r="2" fill="#76D3D6"/>
<circle cx="606" cy="174.402" r="2" fill="#76D3D6"/>
<circle cx="622" cy="30.4019" r="2" fill="#76D3D6"/>
<circle cx="622" cy="46.4019" r="2" fill="#76D3D6"/>
<circle cx="622" cy="62.4019" r="2" fill="#76D3D6"/>
<circle cx="622" cy="78.4019" r="2" fill="#76D3D6"/>
<circle cx="622" cy="94.4019" r="2" fill="#76D3D6"/>
<circle cx="622" cy="110.402" r="2" fill="#76D3D6"/>
<circle cx="622" cy="126.402" r="2" fill="#76D3D6"/>
<circle cx="622" cy="142.402" r="2" fill="#76D3D6"/>
<circle cx="622" cy="158.402" r="2" fill="#76D3D6"/>
<circle cx="622" cy="174.402" r="2" fill="#76D3D6"/>
<circle cx="638" cy="30.4019" r="2" fill="#76D3D6"/>
<circle cx="638" cy="46.4019" r="2" fill="#76D3D6"/>
<circle cx="638" cy="62.4019" r="2" fill="#76D3D6"/>
<circle cx="638" cy="78.4019" r="2" fill="#76D3D6"/>
<circle cx="638" cy="94.4019" r="2" fill="#76D3D6"/>
<circle cx="638" cy="110.402" r="2" fill="#76D3D6"/>
<circle cx="638" cy="126.402" r="2" fill="#76D3D6"/>
<circle cx="638" cy="142.402" r="2" fill="#76D3D6"/>
<circle cx="638" cy="158.402" r="2" fill="#76D3D6"/>
<circle cx="638" cy="174.402" r="2" fill="#76D3D6"/>
</g>
<path d="M442.661 69.5291C471.063 102.886 458.688 151.449 434.476 183.895C397.971 232.84 308.371 259.029 250.338 219.822C206.298 190.07 176.196 136.471 191.703 89.2829C203.906 52.1265 241.592 12.4399 287.901 2.09926C324.219 -6.03658 325.993 16.8495 342.826 33.0724C349.749 39.7438 361.538 39.8658 371.22 40.5574C386.442 41.6394 401.274 42.9005 414.917 49.1814C426.706 54.5917 435.835 61.5478 442.661 69.5291Z" fill="#FFBABA"/>
<path opacity="0.7" d="M442.661 69.5291C471.063 102.886 458.688 151.449 434.476 183.895C397.971 232.84 308.371 259.029 250.338 219.822C206.298 190.07 176.196 136.471 191.703 89.2829C203.906 52.1265 241.592 12.4399 287.901 2.09926C324.219 -6.03658 325.993 16.8495 342.826 33.0724C349.749 39.7438 361.538 39.8658 371.22 40.5574C386.442 41.6394 401.274 42.9005 414.917 49.1814C426.706 54.5917 435.835 61.5478 442.661 69.5291Z" fill="white"/>
<path d="M316.27 280.402C394.449 280.402 457.826 273.558 457.826 265.115C457.826 256.672 394.449 249.827 316.27 249.827C238.091 249.827 174.715 256.672 174.715 265.115C174.715 273.558 238.091 280.402 316.27 280.402Z" fill="#FFBABA"/>
<path opacity="0.5" d="M316.27 280.402C394.449 280.402 457.826 273.558 457.826 265.115C457.826 256.672 394.449 249.827 316.27 249.827C238.091 249.827 174.715 256.672 174.715 265.115C174.715 273.558 238.091 280.402 316.27 280.402Z" fill="white"/>
<path d="M487.058 68.382H418.058V250.568H487.058V68.382Z" fill="white" stroke="#444C51" stroke-width="0.75" stroke-miterlimit="10"/>
<path d="M482.013 73.2228H423.102V120.134H482.013V73.2228Z" stroke="#444C51" stroke-width="0.75" stroke-miterlimit="10"/>
<path d="M482.274 131.174H423.362V178.086H482.274V131.174Z" stroke="#444C51" stroke-width="0.75" stroke-miterlimit="10"/>
<path d="M482.274 189.126H423.362V236.037H482.274V189.126Z" stroke="#444C51" stroke-width="0.75" stroke-miterlimit="10"/>
<path d="M460.258 77.4615H444.865V88.3554H460.258V77.4615Z" fill="#444C51"/>
<path d="M460.258 136.78H444.865V147.674H460.258V136.78Z" fill="#444C51"/>
<path d="M460.258 196.09H444.865V206.984H460.258V196.09Z" fill="#444C51"/>
<path d="M385.555 28.6302H245.497V133.135H385.555V28.6302Z" fill="#444C51" stroke="#444C51" stroke-linecap="round" stroke-linejoin="round"/>
<path d="M381.585 31.9741H249.483V129.783H381.585V31.9741Z" fill="white" stroke="#444C51" stroke-linecap="round" stroke-linejoin="round"/>
<path d="M262.631 45.9758L261.541 58.3341L272.386 59.4162L273.468 45.325L262.631 45.9758Z" fill="white" stroke="#444C51" stroke-linecap="round" stroke-linejoin="round"/>
<path d="M296.451 67.2185V76.3307L306.857 77.1931L307.288 68.3087L296.451 67.2185Z" fill="white" stroke="#444C51" stroke-linecap="round" stroke-linejoin="round"/>
<path d="M293.441 52.1672V61.2712L303.847 62.1418L304.278 53.2493L293.441 52.1672Z" fill="white" stroke="#444C51" stroke-linecap="round" stroke-linejoin="round"/>
<path d="M281.392 86.4923V95.5963L291.797 96.4669L292.237 87.5744L281.392 86.4923Z" fill="white" stroke="#444C51" stroke-linecap="round" stroke-linejoin="round"/>
<path d="M276.934 44.6741L308.379 40.5574L308.59 45.5446L278.455 49.6614L276.934 44.6741Z" fill="#FFBABA" stroke="#444C51" stroke-linecap="round" stroke-linejoin="round"/>
<path d="M312.561 110.314L343.949 114.748L342.826 119.613L312.691 115.529L312.561 110.314Z" fill="white" stroke="#444C51" stroke-linecap="round" stroke-linejoin="round"/>
<path d="M274.769 63.5329V75.6798H285.394L284.955 63.3214L274.769 63.5329Z" fill="#FFBABA" stroke="#444C51" stroke-linecap="round" stroke-linejoin="round"/>
<path d="M361.489 78.5924V90.731H372.115L371.675 78.3727L361.489 78.5924Z" fill="#FFBABA" stroke="#444C51" stroke-linecap="round" stroke-linejoin="round"/>
<path d="M327.237 40.769V56.6013L337.643 57.8949V40.3378L327.237 40.769Z" fill="#FFBABA" stroke="#444C51" stroke-linecap="round" stroke-linejoin="round"/>
<path d="M357.153 57.0325L345.665 55.2996L344.363 67.2186L355.2 68.9596L357.153 57.0325Z" fill="white" stroke="#444C51" stroke-linecap="round" stroke-linejoin="round"/>
<path d="M333.738 81.7491L338.945 95.1895L351.523 89.1202L345.014 77.4127L333.738 81.7491Z" fill="#FFBABA" stroke="#444C51" stroke-linecap="round" stroke-linejoin="round"/>
<path d="M309.241 57.2521L312.275 86.0855L325.935 85.0034L323.332 55.511L309.241 57.2521Z" fill="white" stroke="#444C51" stroke-linecap="round" stroke-linejoin="round"/>
<path d="M267.398 84.5641L265.226 100.828L275.201 101.698L277.584 85.215L267.398 84.5641Z" fill="#FFBABA" stroke="#444C51" stroke-linecap="round" stroke-linejoin="round"/>
<path d="M308.061 85.0441L297.004 86.5655L299.819 102.609L311.527 100.657L308.061 85.0441Z" fill="#FFBABA" stroke="#444C51" stroke-linecap="round" stroke-linejoin="round"/>
<path d="M367.664 71.9129C367.355 69.9774 366.608 68.138 365.48 66.535C364.352 64.9319 362.873 63.6074 361.156 62.6625" stroke="#444C51" stroke-linecap="round" stroke-linejoin="round"/>
<path d="M360.464 65.0625L359.781 61.6292L365.264 61.979" stroke="#444C51" stroke-linecap="round" stroke-linejoin="round"/>
<path d="M335.805 44.5115L329.638 52.7287" stroke="#444C51" stroke-linecap="round" stroke-linejoin="round"/>
<path d="M329.638 45.1948L335.805 51.3618" stroke="#444C51" stroke-linecap="round" stroke-linejoin="round"/>
<path d="M263.875 63.0042C264.064 65.2468 265.018 67.3564 266.578 68.9786C268.138 70.6008 270.209 71.6369 272.443 71.9129" stroke="#444C51" stroke-linecap="round" stroke-linejoin="round"/>
<path d="M271.409 69.1711L274.151 72.5963L269.017 73.9632" stroke="#444C51" stroke-linecap="round" stroke-linejoin="round"/>
<path d="M323.82 48.2783C323.82 48.2783 312.512 45.8375 307.378 53.0703" stroke="#444C51" stroke-linecap="round" stroke-linejoin="round"/>
<path d="M306.011 51.012L305.661 55.4704L310.803 53.412" stroke="#444C51" stroke-linecap="round" stroke-linejoin="round"/>
<path d="M216.981 197.254C216.981 197.254 205.997 205.975 200.709 215.063C195.421 224.151 195.616 230.318 195.616 230.318C195.616 230.318 211.074 219.228 214.621 211.743C216.739 207.226 217.556 202.209 216.981 197.254Z" fill="#FFBABA"/>
<path d="M170.606 185.09C170.606 185.09 168.166 200.752 173.966 210.393C179.767 220.034 195.583 230.065 195.583 230.065C195.583 230.065 197.87 223.028 189.555 212.337C181.24 201.647 170.606 185.09 170.606 185.09Z" fill="#FFBABA"/>
<path d="M196.405 212.703C195.871 204.05 193.253 195.654 188.774 188.231C181.289 175.807 172.331 163.221 170.224 157.868C168.823 154.157 167.69 150.35 166.831 146.478C166.831 146.478 163.715 156.81 169.549 170.552C175.382 184.293 196.405 212.703 196.405 212.703Z" fill="#FFBABA"/>
<path d="M195.827 207.749C201.577 200.229 206.58 192.166 210.765 183.675C216.859 170.828 215.89 157.494 215.89 157.494C215.89 157.494 204.435 172.342 200.79 183.927C198.459 191.712 196.799 199.681 195.827 207.749Z" fill="#FFBABA"/>
<path d="M194.095 182.398C194.095 182.398 192.012 163.945 187.041 153.702C182.07 143.459 171.884 127.668 171.884 127.668C171.884 127.668 170.606 145.314 178.637 159.454C183.125 167.529 188.297 175.205 194.095 182.398Z" fill="#FFBABA"/>
<path d="M193.68 171.756C193.68 171.756 204.028 156.338 206.86 145.314C209.691 134.29 212.156 115.627 212.156 115.627C212.156 115.627 199.741 128.335 196.698 144.289C194.913 153.342 193.903 162.531 193.68 171.756Z" fill="#FFBABA"/>
<path d="M198.821 105.205C198.821 105.205 189.058 112.381 190.637 127.424C192.215 142.467 193.647 147.544 193.647 147.544C192.117 137.252 198.821 105.205 198.821 105.205Z" fill="#FFBABA"/>
<g opacity="0.5">
<path d="M216.981 197.254C216.981 197.254 205.997 205.975 200.709 215.063C195.421 224.151 195.616 230.318 195.616 230.318C195.616 230.318 211.074 219.228 214.621 211.743C216.739 207.226 217.556 202.209 216.981 197.254Z" fill="white"/>
<path d="M170.606 185.09C170.606 185.09 168.166 200.752 173.966 210.393C179.767 220.034 195.583 230.065 195.583 230.065C195.583 230.065 197.87 223.028 189.555 212.337C181.24 201.647 170.606 185.09 170.606 185.09Z" fill="white"/>
<path d="M196.405 212.703C195.871 204.05 193.253 195.654 188.774 188.231C181.289 175.807 172.331 163.221 170.224 157.868C168.823 154.157 167.69 150.35 166.831 146.478C166.831 146.478 163.715 156.81 169.549 170.552C175.382 184.293 196.405 212.703 196.405 212.703Z" fill="white"/>
<path d="M195.827 207.749C201.577 200.229 206.58 192.166 210.765 183.675C216.859 170.828 215.89 157.494 215.89 157.494C215.89 157.494 204.435 172.342 200.79 183.927C198.459 191.712 196.799 199.681 195.827 207.749Z" fill="white"/>
<path d="M194.095 182.398C194.095 182.398 192.012 163.945 187.041 153.702C182.07 143.459 171.884 127.668 171.884 127.668C171.884 127.668 170.606 145.314 178.637 159.454C183.125 167.529 188.297 175.205 194.095 182.398Z" fill="white"/>
<path d="M193.68 171.756C193.68 171.756 204.028 156.338 206.86 145.314C209.691 134.29 212.156 115.627 212.156 115.627C212.156 115.627 199.741 128.335 196.698 144.289C194.913 153.342 193.903 162.531 193.68 171.756Z" fill="white"/>
<path d="M198.821 105.205C198.821 105.205 189.058 112.381 190.637 127.424C192.215 142.467 193.647 147.544 193.647 147.544C192.117 137.252 198.821 105.205 198.821 105.205Z" fill="white"/>
</g>
<path d="M195.388 235.102C195.388 235.102 196.283 232.718 196.283 214.567C196.283 196.416 193.907 189.272 193.907 171.447C193.907 153.621 192.711 136.926 192.711 136.926" stroke="#FFBABA" stroke-width="0.75" stroke-miterlimit="10"/>
<path d="M194.029 180.599C194.029 180.599 187.521 166.663 184.82 161.431C182.289 156.55 179.344 148.74 179.344 148.74" stroke="#FFBABA" stroke-width="0.75" stroke-miterlimit="10"/>
<path d="M179.849 182.837C179.849 182.837 194.298 209.685 196.405 212.704" stroke="#FFBABA" stroke-width="0.75" stroke-miterlimit="10"/>
<path d="M196.275 205.487L207.966 177.614" stroke="#FFBABA" stroke-width="0.75" stroke-miterlimit="10"/>
<path d="M182.338 212.703C185.072 217.178 196.275 228.878 196.275 228.878C196.275 228.878 203.735 220.913 208.479 213.696" stroke="#FFBABA" stroke-width="0.75" stroke-miterlimit="10"/>
<path d="M194.03 169.152L201.246 144.761" stroke="#FFBABA" stroke-width="0.75" stroke-miterlimit="10"/>
<path d="M203.353 231.953H187.065V237.77H188.603L190.58 250.568H199.83L201.815 237.77H203.353V231.953Z" fill="#FFBABA"/>
<path d="M203.353 231.953H187.065V237.77H188.603L190.58 250.568H199.83L201.815 237.77H203.353V231.953Z" fill="#FFBABA"/>
<path d="M255.081 80.9436C255.081 80.9436 262.151 101.397 263.794 106.571C269.616 124.902 258.858 137.011 258.5 138.402C258.142 139.793 258.774 135.885 256 136.902C253.226 137.919 253 134.902 253 134.902L251.151 112.633L255.081 80.9436Z" fill="#FFBABA" stroke="#444C51" stroke-linecap="round" stroke-linejoin="round"/>
<path d="M253.657 113.552C253.657 113.552 257.31 109.484 261.459 110.371" stroke="#444C51" stroke-linecap="round" stroke-linejoin="round"/>
<path d="M253.454 112.144C253.454 112.144 255.528 106.807 260.271 106.807" stroke="#444C51" stroke-linecap="round" stroke-linejoin="round"/>
<path d="M224.018 74.1258C224.018 74.1258 207.747 83.0752 206.844 85.516C205.941 87.9567 217.42 135.389 217.42 135.389C217.618 135.9 217.964 136.34 218.413 136.655C218.862 136.969 219.394 137.143 219.942 137.154C221.838 137.154 248.735 136.65 249.614 136.397C250.492 136.145 250.883 134.77 250.883 134.128C250.883 133.485 255.675 82.2291 255.048 80.968C254.422 79.707 234.88 71.7501 234.88 71.7501L227.932 72.0023L224.018 74.1258Z" fill="#FFBABA" stroke="#444C51" stroke-linecap="round" stroke-linejoin="round"/>
<path d="M226.67 67.308C225.188 68.567 223.826 69.9615 222.602 71.4736C220.975 73.6214 221.846 76.9002 222.855 79.3002C223.864 81.7003 227.02 88.3961 227.02 88.3961C227.02 88.3961 234.22 81.8305 234.603 81.5783C234.985 81.3261 245.708 83.596 245.708 83.596C245.708 83.596 244.447 76.9002 240.786 71.856C237.125 66.8117 233.081 65.6646 231.446 65.5425C229.811 65.4205 226.67 67.308 226.67 67.308Z" fill="#FFBABA" stroke="#444C51" stroke-linecap="round" stroke-linejoin="round"/>
<path d="M223.888 62.2556C223.888 62.2556 225.515 68.0646 225.914 69.5779C226.312 71.0911 228.688 75.3869 230.331 77.5347C231.975 79.6826 235.636 82.8393 235.888 81.7003C236.14 80.5613 238.41 63.3946 237.271 60.7424C236.132 58.0901 226.418 50.3854 224.018 51.7929C221.618 53.2004 223.888 62.2556 223.888 62.2556Z" fill="white" stroke="#444C51" stroke-linecap="round" stroke-linejoin="round"/>
<path d="M246.27 61.8814C246.27 61.8814 244.887 64.6557 239.834 62.638C234.782 60.6203 232.634 57.7158 232.008 55.8202L230.934 52.5658C231.951 51.3617 233.374 50.0763 233.269 49.0105C233.188 48.3229 232.927 47.6688 232.512 47.1148L239.582 43.8605C239.582 43.8605 241.6 42.9818 240.721 40.4516C239.842 37.9213 234.408 34.7565 227.338 37.1972C220.268 39.638 216.981 45.4632 218.461 50.5156C219.942 55.568 224.523 63.5329 224.523 63.5329C224.523 63.5329 226.288 64.1675 227.175 63.2807C228.062 62.3939 226.923 58.9932 226.923 58.9932L227.321 58.6677C228.135 60.4088 230.12 64.436 230.714 65.811C231.471 67.5765 231.723 68.8375 234.88 69.2199C238.036 69.6023 246.115 71.62 246.872 68.8375C247.628 66.055 246.27 61.8814 246.27 61.8814Z" fill="#444C51" stroke="#444C51" stroke-linecap="round" stroke-linejoin="round"/>
<path d="M229.185 46.3907C227.119 46.6347 225.154 47.4206 223.489 48.6688C220.422 50.8248 220.081 52.7367 220.081 52.7367L226.223 49.6695C226.223 49.6695 221.895 53.4201 221.342 54.4452C220.788 55.4703 225.898 52.2811 225.898 52.2811L223.164 55.6981L226.467 54.4452" stroke="white" stroke-width="0.5" stroke-linecap="round" stroke-linejoin="round"/>
<path d="M228.314 46.35C228.314 46.35 231.341 48.1155 230.714 49.7589C230.088 51.4023 228.436 53.2899 228.566 53.8268C228.696 54.3638 232.227 62.6705 233.61 64.0536C234.993 65.4367 244.472 66.5838 245.863 65.1926C247.254 63.8014 244.854 56.292 243.081 51.4105C241.307 46.529 240.054 42.4611 240.054 42.4611L228.314 46.35Z" fill="white" stroke="#444C51" stroke-linecap="round" stroke-linejoin="round"/>
<path d="M241.787 48.799L240.412 50.3448L243.162 56.349L240.583 57.724" stroke="#444C51" stroke-linecap="round" stroke-linejoin="round"/>
<path d="M237.573 52.8913C237.784 53.4202 237.711 53.9409 237.418 54.0548C237.125 54.1687 236.727 53.8351 236.515 53.3144C236.303 52.7937 236.377 52.2649 236.67 52.151C236.962 52.0371 237.369 52.3706 237.573 52.8913Z" fill="#444C51"/>
<path d="M242.12 50.9631C242.332 51.4838 242.267 52.0045 241.974 52.1184C241.681 52.2323 241.274 51.9068 241.063 51.378C240.851 50.8492 240.925 50.3366 241.217 50.2146C241.51 50.0925 241.917 50.4342 242.12 50.9631Z" fill="#444C51"/>
<path d="M237.727 59.8149L240.916 60.1566" stroke="#444C51" stroke-linecap="round" stroke-linejoin="round"/>
<path d="M237.613 50.9386H233.635" stroke="#444C51" stroke-linecap="round" stroke-linejoin="round"/>
<path d="M228.143 60.5146C227.769 60.0102 226.125 56.6012 224.482 57.2602C222.839 57.9193 223.603 60.6692 224.986 62.4346C226.37 64.2001 229.16 62.5567 229.16 62.5567" fill="white"/>
<path d="M228.143 60.5146C227.769 60.0102 226.125 56.6012 224.482 57.2602C222.839 57.9193 223.603 60.6692 224.986 62.4346C226.37 64.2001 229.16 62.5567 229.16 62.5567" stroke="#444C51" stroke-linecap="round" stroke-linejoin="round"/>
<path d="M236.507 70.4646L237.646 62.1335L243.072 62.2556C243.072 62.2556 243.707 62.76 243.202 63.1424C242.698 63.5248 239.793 63.899 239.793 63.899L239.663 65.4123L243.577 64.9079C244.019 65.5432 244.4 66.2187 244.716 66.9256C244.846 67.43 243.837 70.7169 243.837 70.7169L242.82 70.9691L242.446 69.2036L240.68 69.9602C240.68 69.9602 240.298 74.2559 239.916 74.6302C239.191 75.1812 238.433 75.6866 237.646 76.1435C237.646 76.1435 236.254 111.876 236.254 113.52C236.254 117.937 233.602 119.581 230.559 119.955C227.517 120.329 225.759 117.563 225.385 115.285C225.011 113.007 236.507 70.4646 236.507 70.4646Z" fill="white" stroke="#444C51" stroke-linecap="round" stroke-linejoin="round"/>
<path d="M203.313 255.563C203.313 255.563 192.329 264.651 191.19 266.424C190.051 268.198 192.956 268.19 194.729 267.686C196.503 267.181 199.611 266.677 201.799 265.155C203.182 264.168 204.49 263.08 205.713 261.901L205.835 263.666C205.835 263.666 207.86 263.032 207.982 262.658C208.105 262.283 208.641 258.24 208.641 258.24L203.313 255.563Z" fill="#FFBABA" stroke="#444C51" stroke-linecap="round" stroke-linejoin="round"/>
<path d="M210.382 84.3525C210.382 84.3525 207.128 85.9797 206.087 87.8916C205.045 89.8035 205.712 95.2584 206.087 96.9019C210.382 121.902 233.5 125.902 233.5 125.902L237.5 99.9019L230.5 96.9019L227 107.402L221.244 90.1615" fill="#FFBABA"/>
<path d="M210.382 84.3525C210.382 84.3525 207.128 85.9797 206.087 87.8916C205.045 89.8035 205.712 95.2584 206.087 96.9019C210.382 121.902 233.5 125.902 233.5 125.902L237.5 99.9019L230.5 96.9019L227 107.402L221.244 90.1615" stroke="#444C51" stroke-linecap="round" stroke-linejoin="round"/>
<path d="M264.803 255.563C264.803 255.563 275.786 264.651 276.917 266.424C278.048 268.198 275.152 268.19 273.386 267.686C271.621 267.181 268.464 266.677 266.316 265.155C264.932 264.17 263.624 263.083 262.403 261.901L262.273 263.666C262.273 263.666 260.255 263.032 260.125 262.658C259.995 262.283 259.474 258.24 259.474 258.24L264.803 255.563Z" fill="#FFBABA" stroke="#444C51" stroke-linecap="round" stroke-linejoin="round"/>
<path d="M263.843 226.779C263.721 221.344 259.824 213.013 259.824 212.63C259.824 212.248 254.219 162.505 254.219 162.505L250.68 135.364L233.806 135.6L216.924 135.364L213.393 162.505C213.393 162.505 207.787 212.256 207.787 212.63C207.787 213.005 203.882 221.344 203.72 226.779C203.557 232.213 202.336 256.32 202.336 256.32L208.674 258.215C208.674 258.215 220.007 219.326 221.83 211.841C223.652 204.356 227.191 186.213 228.534 179.395C229.876 172.578 233.529 161.594 233.529 161.594L233.838 161.521L234.139 161.594C234.139 161.594 237.801 172.578 239.135 179.395C240.469 186.213 244.016 204.397 245.839 211.841C247.661 219.285 259.003 258.215 259.003 258.215L265.34 256.32C265.34 256.32 263.965 232.205 263.843 226.779Z" fill="#FCDDEC" stroke="#444C51" stroke-linecap="round" stroke-linejoin="round"/>
<path d="M259.5 206.402C259.5 208.002 224.167 209.402 206.5 209.902L217.5 134.902C227.167 134.402 247 133.702 249 134.902C251.5 136.402 259.5 204.402 259.5 206.402Z" fill="#FFBABA" stroke="black"/>
<path d="M241.307 151.555L235.677 158.966" stroke="white" stroke-linecap="round" stroke-linejoin="round"/>
<path d="M220.561 142.369L229.16 149.781" stroke="white" stroke-linecap="round" stroke-linejoin="round"/>
<path d="M219.08 144.444L225.304 148.593" stroke="white" stroke-linecap="round" stroke-linejoin="round"/>
<path d="M236.564 137.626L233.301 145.632L236.271 147.999L234.79 152.742" stroke="white" stroke-linecap="round" stroke-linejoin="round"/>
<path d="M263.928 130.105C263.928 130.105 266.552 126.426 265.894 124.058C265.236 121.689 261.185 119.717 258.038 120.629C254.89 121.542 254.764 125.198 254.764 127.368C254.764 129.538 253.582 139.014 253.582 139.014L249 145.863L252.536 149.402C252.536 149.402 256.207 143.347 258.958 139.352C260.892 136.389 262.554 133.297 263.928 130.105Z" fill="white" stroke="#444C51" stroke-linecap="round" stroke-linejoin="round"/>
<path d="M253.055 139.652L247.897 142.304L244.366 147.356L244.993 147.991C245.84 147.423 246.727 146.915 247.645 146.47C248.784 145.965 250.802 145.209 250.802 145.209" fill="white"/>
<path d="M253.055 139.652L247.897 142.304L244.366 147.356L244.993 147.991C245.84 147.423 246.727 146.915 247.645 146.47C248.784 145.965 250.802 145.209 250.802 145.209" stroke="#444C51" stroke-linecap="round" stroke-linejoin="round"/>
<path d="M221 216.902C220 217.902 207.5 213.902 207 213.402C203.4 215.402 202.5 242.902 202.5 256.402L208.5 257.902C213 243.902 221.8 216.102 221 216.902Z" fill="black" stroke="black"/>
<path d="M259.5 213.402L248 216.402H247L259.5 258.402L266 255.902C265.6 226.302 261.5 215.235 259.5 213.402Z" fill="black" stroke="black"/>
<path d="M265.501 118.402C264.701 117.602 256.834 118.069 253.001 118.402L251.501 135.902L260.501 137.402C268.001 122.402 266.501 119.402 265.501 118.402Z" fill="white"/>
<path d="M231.001 84.4019L230 95.9019C228.167 99.2352 235.4 96.2019 237 99.4019C239 103.402 235.001 99.4019 239.001 95.9019C242.201 93.1019 241.167 95.5685 241.001 85.9019L231.001 84.4019Z" fill="white"/>
<path d="M265.501 118.402C264.701 117.602 256.834 118.069 253.001 118.402L251.501 135.902L260.501 137.402C268.001 122.402 266.501 119.402 265.501 118.402Z" stroke="black"/>
<path d="M231.001 84.4019L230 95.9019C228.167 99.2352 235.4 96.2019 237 99.4019C239 103.402 235.001 99.4019 239.001 95.9019C242.201 93.1019 241.167 95.5685 241.001 85.9019L231.001 84.4019Z" stroke="black"/>
<defs>
<linearGradient id="paint0_linear_950_14999" x1="133" y1="30.4019" x2="133" y2="296.402" gradientUnits="userSpaceOnUse">
<stop stop-color="#FFBABA"/>
<stop offset="1" stop-color="#FFF0F0"/>
</linearGradient>
</defs>
</svg>
