<svg width="32" height="32" viewBox="0 0 32 32" fill="none" xmlns="http://www.w3.org/2000/svg">
<rect x="0.5" y="0.5" width="31" height="31" rx="15.5" stroke="white"/>
<path d="M23.0016 12.2547C22.5234 12.4609 22.0031 12.6094 21.4672 12.6672C22.0236 12.3366 22.4403 11.8144 22.6391 11.1984C22.1169 11.5091 21.5449 11.7269 20.9484 11.8422C20.6991 11.5757 20.3976 11.3633 20.0627 11.2185C19.7277 11.0736 19.3665 10.9992 19.0016 11C17.525 11 16.3375 12.1969 16.3375 13.6656C16.3375 13.8719 16.3625 14.0781 16.4031 14.2766C14.1922 14.1609 12.2203 13.1047 10.9094 11.4875C10.6705 11.8955 10.5453 12.36 10.5469 12.8328C10.5469 13.7578 11.0172 14.5734 11.7344 15.0531C11.3117 15.0365 10.899 14.9203 10.5297 14.7141V14.7469C10.5297 16.0422 11.4453 17.1156 12.6656 17.3625C12.4365 17.422 12.2008 17.4525 11.9641 17.4531C11.7906 17.4531 11.6266 17.4359 11.4609 17.4125C11.7984 18.4688 12.7812 19.2359 13.9516 19.2609C13.0359 19.9781 11.8891 20.4 10.6438 20.4C10.4203 20.4 10.2141 20.3922 10 20.3672C11.1812 21.125 12.5828 21.5625 14.0922 21.5625C18.9922 21.5625 21.6734 17.5031 21.6734 13.9797C21.6734 13.8641 21.6734 13.7484 21.6656 13.6328C22.1844 13.2531 22.6391 12.7828 23.0016 12.2547Z" fill="white"/>
</svg>
