<svg width="32" height="32" viewBox="0 0 32 32" fill="none" xmlns="http://www.w3.org/2000/svg">
<rect x="0.5" y="0.5" width="31" height="31" rx="15.5" stroke="white"/>
<g clip-path="url(#clip0_1007_22252)">
<path d="M11.9999 9.25918C11.9999 10.1088 11.4319 10.84 10.3991 10.84C9.42713 10.84 8.79993 10.1504 8.79993 9.30078C8.79993 8.42878 9.40793 7.65918 10.3999 7.65918C11.3919 7.65918 11.9807 8.38718 11.9999 9.25918ZM8.79993 22.0592V11.6592H11.9999V22.0592H8.79993Z" fill="white"/>
<path d="M13.6 15.2149C13.6 13.9789 13.5592 12.9461 13.5184 12.0541H16.3936L16.536 13.4325H16.5968C17.0016 12.7837 17.9936 11.8325 19.6544 11.8325C21.68 11.8325 23.2 13.1885 23.2 16.1061V22.0597H20V16.5709C20 15.2957 19.5144 14.3229 18.4 14.3229C17.5504 14.3229 17.1248 15.0109 16.9016 15.5781C16.82 15.7813 16.8 16.0645 16.8 16.3485V22.0597H13.6V15.2149Z" fill="white"/>
</g>
<defs>
<clipPath id="clip0_1007_22252">
<rect x="8" y="6.85938" width="16" height="16" fill="white"/>
</clipPath>
</defs>
</svg>
