<svg width="154" height="36" viewBox="0 0 154 36" fill="none" xmlns="http://www.w3.org/2000/svg">
<path d="M25.2632 1.26316C25.2632 0.914368 25.5459 0.631579 25.8947 0.631579C26.2435 0.631579 26.5263 0.914368 26.5263 1.26316C26.5263 1.61195 26.2435 1.89474 25.8947 1.89474C25.5459 1.89474 25.2632 1.61195 25.2632 1.26316ZM35.3684 5.05263C35.0196 5.05263 34.7368 5.33542 34.7368 5.68421C34.7368 6.033 35.0196 6.31579 35.3684 6.31579C35.7172 6.31579 36 6.033 36 5.68421C36 5.33542 35.7172 5.05263 35.3684 5.05263ZM29.6842 1.89474C29.6842 0.849947 30.5342 0 31.5789 0C32.6237 0 33.4737 0.849947 33.4737 1.89474C33.4737 2.93953 32.6237 3.78947 31.5789 3.78947C30.5342 3.78947 29.6842 2.93953 29.6842 1.89474ZM30.9474 1.89474C30.9474 2.24289 31.2305 2.52632 31.5789 2.52632C31.9274 2.52632 32.2105 2.24289 32.2105 1.89474C32.2105 1.54658 31.9274 1.26316 31.5789 1.26316C31.2305 1.26316 30.9474 1.54658 30.9474 1.89474ZM34.1053 8.8421V27.7895C34.1053 28.0359 33.9622 28.2598 33.7383 28.3631L17.3173 35.9421C17.2334 35.9806 17.1426 36 17.0526 36C16.9626 36 16.8718 35.9806 16.788 35.9421L0.366948 28.3631C0.143053 28.2598 0 28.0359 0 27.7895V8.8421C0 8.58837 0.151737 8.35911 0.385421 8.26042L16.8065 1.31305C16.9644 1.24642 17.1407 1.24642 17.2986 1.31305L33.7197 8.26042C33.9535 8.35911 34.1053 8.58837 34.1053 8.8421ZM2.25237 8.8421L9.18774 11.7763L16.788 8.26847C16.9625 8.18826 17.1643 8.19142 17.3351 8.27716L24.6011 11.9102L31.8529 8.8421L17.0526 2.58063L2.25237 8.8421ZM23.2192 22.1053L17.0416 19.0165L10.3492 22.1054L17.0416 25.1942L23.2192 22.1053ZM16.4211 9.8291L9.47368 13.0355V21.1179L16.4211 17.9114V9.8291ZM1.26316 27.3854L16.4211 34.3811V26.2989L8.57747 22.6789C8.35358 22.5756 8.21053 22.3517 8.21053 22.1053V12.7344L1.26316 9.795V27.3854ZM32.8421 27.3854V9.795L25.2632 13.0015V22.1053C25.2632 22.3446 25.1282 22.5632 24.9141 22.6702L17.6842 26.2852V34.3813L32.8421 27.3854Z" fill="white"/>
<path d="M41.3444 11.7071H44.4954C45.5318 13.6117 46.5401 15.4603 47.5204 17.2529C48.5007 19.0314 49.4881 20.915 50.4824 22.9037H50.5454L50.4404 18.1351V11.7071H53.0032V27H50.1043C49.334 25.5995 48.6408 24.3461 48.0246 23.2398C47.4224 22.1194 46.8762 21.1111 46.3861 20.2148C45.8959 19.3185 45.4478 18.4923 45.0416 17.736C44.6355 16.9798 44.2504 16.2585 43.8863 15.5723H43.8442L43.9073 20.3409V27H41.3444V11.7071ZM60.8906 27.2311C59.6722 27.2311 58.6499 27.007 57.8236 26.5589C57.0114 26.0967 56.3952 25.4455 55.975 24.6052C55.5689 23.765 55.3658 22.7706 55.3658 21.6223C55.3658 20.838 55.4709 20.1028 55.6809 19.4166C55.905 18.7163 56.2341 18.1001 56.6683 17.568C57.1164 17.0218 57.6696 16.6016 58.3278 16.3076C58.986 15.9995 59.7493 15.8454 60.6175 15.8454C61.4998 15.8454 62.2491 16.0065 62.8653 16.3286C63.4815 16.6507 63.9646 17.0988 64.3147 17.673C64.6789 18.2472 64.9169 18.9194 65.029 19.6896C65.141 20.4459 65.134 21.2581 65.008 22.1264H56.8153L58.2438 21.0761C58.0057 21.9584 57.9777 22.7076 58.1597 23.3238C58.3418 23.94 58.6989 24.4092 59.2311 24.7313C59.7773 25.0534 60.4565 25.2144 61.2688 25.2144C61.8289 25.2144 62.3821 25.1584 62.9283 25.0464C63.4745 24.9203 63.9366 24.8013 64.3147 24.6893L64.6088 26.5589C64.1047 26.7549 63.5165 26.916 62.8443 27.042C62.186 27.1681 61.5348 27.2311 60.8906 27.2311ZM56.8363 20.677H62.6132C62.6272 20.6069 62.6342 20.5439 62.6342 20.4879C62.6342 20.4319 62.6342 20.3899 62.6342 20.3619C62.6342 19.8437 62.5642 19.3885 62.4241 18.9964C62.2841 18.6043 62.053 18.2962 61.7309 18.0721C61.4228 17.834 61.0167 17.715 60.5125 17.715C59.9243 17.715 59.4342 17.8901 59.042 18.2402C58.6639 18.5903 58.3908 19.0384 58.2228 19.5846C58.0687 20.1308 58.0267 20.712 58.0967 21.3282L56.8363 20.677ZM66.2705 16.0765H69.0855L70.9551 24.5842H70.9971L71.7953 21.2441L73.1608 16.0765H75.4295L76.7949 21.2441L77.5932 24.5842H77.6352L79.5048 16.0765H82.3407L79.1477 27H76.3748L74.3161 19.3955H74.2741L72.2365 27H69.4426L66.2705 16.0765ZM84.1285 11.8121C84.7307 11.7561 85.3679 11.7141 86.0401 11.6861C86.7263 11.6581 87.4336 11.6441 88.1618 11.6441C89.5903 11.6441 90.7526 11.8051 91.6489 12.1272C92.5592 12.4493 93.2314 12.9395 93.6656 13.5977C94.1137 14.2419 94.3378 15.0612 94.3378 16.0555C94.3378 16.7557 94.1907 17.3789 93.8966 17.9251C93.6165 18.4572 93.2524 18.9054 92.8043 19.2695C92.3701 19.6196 91.901 19.8787 91.3968 20.0468V20.0888L94.884 27H91.943L88.9811 20.761H86.8384V27H84.1285V11.8121ZM88.75 18.6813C89.2401 18.6813 89.6953 18.5903 90.1154 18.4082C90.5496 18.2262 90.8997 17.9531 91.1658 17.589C91.4459 17.2108 91.5859 16.7487 91.5859 16.2025C91.5859 15.3622 91.3338 14.746 90.8297 14.3539C90.3255 13.9618 89.5552 13.7657 88.5189 13.7657C88.1968 13.7657 87.8887 13.7727 87.5946 13.7867C87.3145 13.8007 87.0624 13.8218 86.8384 13.8498V18.6813H88.75ZM101.439 27.2311C100.22 27.2311 99.1979 27.007 98.3716 26.5589C97.5594 26.0967 96.9432 25.4455 96.523 24.6052C96.1169 23.765 95.9138 22.7706 95.9138 21.6223C95.9138 20.838 96.0189 20.1028 96.2289 19.4166C96.453 18.7163 96.7821 18.1001 97.2163 17.568C97.6644 17.0218 98.2176 16.6016 98.8758 16.3076C99.534 15.9995 100.297 15.8454 101.166 15.8454C102.048 15.8454 102.797 16.0065 103.413 16.3286C104.029 16.6507 104.513 17.0988 104.863 17.673C105.227 18.2472 105.465 18.9194 105.577 19.6896C105.689 20.4459 105.682 21.2581 105.556 22.1264H97.3633L98.7918 21.0761C98.5537 21.9584 98.5257 22.7076 98.7077 23.3238C98.8898 23.94 99.2469 24.4092 99.7791 24.7313C100.325 25.0534 101.004 25.2144 101.817 25.2144C102.377 25.2144 102.93 25.1584 103.476 25.0464C104.022 24.9203 104.485 24.8013 104.863 24.6893L105.157 26.5589C104.653 26.7549 104.064 26.916 103.392 27.042C102.734 27.1681 102.083 27.2311 101.439 27.2311ZM97.3843 20.677H103.161C103.175 20.6069 103.182 20.5439 103.182 20.4879C103.182 20.4319 103.182 20.3899 103.182 20.3619C103.182 19.8437 103.112 19.3885 102.972 18.9964C102.832 18.6043 102.601 18.2962 102.279 18.0721C101.971 17.834 101.565 17.715 101.06 17.715C100.472 17.715 99.9821 17.8901 99.59 18.2402C99.2119 18.5903 98.9388 19.0384 98.7708 19.5846C98.6167 20.1308 98.5747 20.712 98.6447 21.3282L97.3843 20.677ZM107.932 19.3955C107.932 18.7653 107.925 18.1772 107.911 17.631C107.911 17.0848 107.897 16.5666 107.869 16.0765L110.201 15.9925L110.39 17.4629H110.474C110.712 17.2389 111.006 17.0008 111.356 16.7487C111.72 16.4966 112.133 16.2865 112.595 16.1185C113.058 15.9364 113.569 15.8454 114.129 15.8454C114.703 15.8454 115.207 15.9434 115.641 16.1395C116.09 16.3356 116.468 16.6297 116.776 17.0218C117.084 17.3999 117.315 17.8761 117.469 18.4502C117.637 19.0104 117.721 19.6546 117.721 20.3829V27H115.011V20.4669C115.011 20.0047 114.955 19.6196 114.843 19.3115C114.731 18.9894 114.584 18.7373 114.402 18.5553C114.22 18.3592 114.01 18.2192 113.772 18.1351C113.548 18.0511 113.317 18.0091 113.079 18.0091C112.714 18.0091 112.378 18.0721 112.07 18.1982C111.776 18.3242 111.51 18.4853 111.272 18.6813C111.034 18.8634 110.824 19.0524 110.642 19.2485V27H107.932V19.3955ZM124.228 27.2311C123.57 27.2311 123.037 27.133 122.631 26.937C122.225 26.7409 121.91 26.4678 121.686 26.1177C121.462 25.7536 121.308 25.3405 121.224 24.8783C121.14 24.4022 121.098 23.877 121.098 23.3028V18.0511H119.648L119.774 16.1605L121.224 16.0765L121.392 13.5977L123.808 13.0935V16.0765H126.412L126.265 18.0511H123.808V23.0297C123.808 23.3938 123.85 23.7229 123.934 24.017C124.018 24.2971 124.165 24.5282 124.375 24.7103C124.599 24.8923 124.921 24.9833 125.341 24.9833C125.523 24.9833 125.698 24.9763 125.866 24.9623C126.048 24.9343 126.216 24.8993 126.37 24.8573L126.391 26.916C126.167 26.986 125.845 27.056 125.425 27.126C125.019 27.1961 124.62 27.2311 124.228 27.2311ZM131.266 27.2311C130.594 27.2311 130.006 27.098 129.502 26.8319C129.012 26.5519 128.627 26.1737 128.346 25.6976C128.08 25.2074 127.947 24.6612 127.947 24.0591C127.947 23.4709 128.052 22.9807 128.262 22.5886C128.473 22.1824 128.76 21.8603 129.124 21.6223C129.502 21.3842 129.943 21.2161 130.447 21.1181C130.951 21.0201 131.49 20.9711 132.065 20.9711H134.396V19.8577C134.396 19.5916 134.368 19.3465 134.312 19.1225C134.27 18.8844 134.179 18.6743 134.039 18.4923C133.899 18.2962 133.689 18.1561 133.409 18.0721C133.143 17.9741 132.793 17.9251 132.359 17.9251C131.771 17.9251 131.189 17.9951 130.615 18.1351C130.041 18.2612 129.537 18.4152 129.103 18.5973L128.662 16.7067C129.012 16.5386 129.418 16.3916 129.88 16.2655C130.342 16.1395 130.825 16.0415 131.329 15.9714C131.834 15.8874 132.331 15.8454 132.821 15.8454C133.689 15.8454 134.403 15.9364 134.964 16.1185C135.524 16.3006 135.958 16.5666 136.266 16.9167C136.574 17.2669 136.791 17.687 136.917 18.1772C137.043 18.6533 137.106 19.1855 137.106 19.7737V24.3742C137.106 24.8083 137.113 25.2634 137.127 25.7396C137.141 26.2157 137.162 26.6359 137.19 27H135.216L134.691 25.5085H134.649C134.242 26.0407 133.752 26.4608 133.178 26.7689C132.604 27.077 131.967 27.2311 131.266 27.2311ZM132.191 25.4035C132.667 25.4035 133.122 25.2774 133.556 25.0254C134.004 24.7593 134.298 24.4162 134.438 23.996V22.4415H132.485C132.275 22.4415 132.051 22.4555 131.813 22.4835C131.589 22.5116 131.378 22.5746 131.182 22.6726C130.986 22.7706 130.825 22.9177 130.699 23.1137C130.573 23.3098 130.51 23.5759 130.51 23.912C130.51 24.3742 130.664 24.7383 130.972 25.0044C131.28 25.2704 131.687 25.4035 132.191 25.4035ZM139.966 11.2869L142.676 11.2029V27H139.966V11.2869ZM148.449 27.2311C147.832 27.2311 147.209 27.1611 146.579 27.021C145.963 26.895 145.438 26.7409 145.003 26.5589L145.34 24.7103C145.578 24.7943 145.872 24.8853 146.222 24.9833C146.572 25.0674 146.943 25.1444 147.335 25.2144C147.727 25.2704 148.105 25.2985 148.47 25.2985C149.072 25.2985 149.527 25.1794 149.835 24.9413C150.143 24.7033 150.297 24.4022 150.297 24.038C150.297 23.744 150.192 23.4989 149.982 23.3028C149.772 23.0927 149.499 22.9177 149.163 22.7776C148.841 22.6236 148.491 22.4695 148.112 22.3155C147.664 22.1334 147.216 21.9164 146.768 21.6643C146.32 21.3982 145.942 21.0621 145.634 20.656C145.34 20.2498 145.193 19.7247 145.193 19.0804C145.193 18.4082 145.368 17.834 145.718 17.3579C146.068 16.8817 146.558 16.5106 147.188 16.2445C147.818 15.9784 148.54 15.8454 149.352 15.8454C149.926 15.8454 150.486 15.9084 151.032 16.0345C151.579 16.1465 152.041 16.2865 152.419 16.4546L152.104 18.3032C151.894 18.2192 151.635 18.1421 151.327 18.0721C151.032 17.9881 150.717 17.9181 150.381 17.8621C150.045 17.806 149.73 17.778 149.436 17.778C148.932 17.778 148.533 17.8831 148.239 18.0931C147.944 18.2892 147.797 18.5693 147.797 18.9334C147.797 19.1855 147.888 19.4026 148.07 19.5846C148.267 19.7667 148.519 19.9277 148.827 20.0678C149.135 20.2078 149.464 20.3549 149.814 20.5089C150.29 20.691 150.766 20.915 151.242 21.1811C151.719 21.4332 152.118 21.7693 152.44 22.1894C152.762 22.6096 152.923 23.1628 152.923 23.849C152.923 24.5352 152.734 25.1304 152.356 25.6346C151.978 26.1387 151.453 26.5308 150.78 26.8109C150.122 27.091 149.345 27.2311 148.449 27.2311Z" fill="white"/>
</svg>
